<svg enable-background="new 0 0 52 52" height="52" viewBox="0 0 52 52" width="52" xmlns="http://www.w3.org/2000/svg"><g fill="#fff"><path d="m26.2 18.1 11.1-11.1c.6-.6.6-1.5 0-2.1l-2.4-2.4c-.6-.6-1.5-.6-2.1 0l-11.1 11.1z"/><path d="m38.4 30.7 11.1-11.1c.6-.6.6-1.5 0-2.1l-2.4-2.4c-.6-.6-1.5-.6-2.1 0l-11.1 11.1z"/><path d="m36.8 39.9c.2-.2.3-.5.4-.8.1-.4 0-.8-.2-1.1-.1-.1-.1-.2-.2-.2l-22.5-22.5c-.2-.3-.7-.4-1.1-.4s-.8.2-1.1.5c-.2.2-.4.3-.6.5-.1.1-.2.3-.3.4-.1.2-.3.3-.4.5s-.3.4-.4.6c-.2.2-.3.5-.4.8-.2.3-.3.6-.4.9-.2.3-.3.7-.4 1.1-.2.4-.3.8-.4 1.2-.1.5-.3.9-.4 1.4s-.2 1-.3 1.6-.2 1.2-.3 1.7c-.1.6-.2 1.3-.2 1.9-.1.7-.1 1.4-.1 2.2v2.4c0 .9 0 1.7.1 2.6 0 .9.1 1.9.2 2.8 0 .3.1.5.1.8h.1l-5.2 5.2c-.8.4-.8 1.4-.3 2l3.7 3.7c.6.6 1.5.6 2.1 0l5.2-5.2c1.9.2 3.7.3 5.6.3 1.6 0 3.1 0 4.7-.1 1.3-.1 2.6-.2 3.8-.5 1-.2 2-.4 3-.7.8-.2 1.6-.5 2.3-.9.6-.3 1.2-.6 1.7-.9.7-.4 1.4-1 2-1.6.1-.1.1-.1.2-.2z"/></g></svg>