<?xml version="1.0" encoding="UTF-8" standalone="no"?>
<!-- Creator: CorelDRAW X8 -->

<svg
   xml:space="preserve"
   width="512px"
   height="512px"
   version="1.1"
   style="shape-rendering:geometricPrecision; text-rendering:geometricPrecision; image-rendering:optimizeQuality; fill-rule:evenodd; clip-rule:evenodd"
   viewBox="0 0 512 512"
   id="svg21"
   sodipodi:docname="Crafting_Icon.svg"
   inkscape:version="1.2.2 (b0a8486541, 2022-12-01)"
   xmlns:inkscape="http://www.inkscape.org/namespaces/inkscape"
   xmlns:sodipodi="http://sodipodi.sourceforge.net/DTD/sodipodi-0.dtd"
   xmlns="http://www.w3.org/2000/svg"
   xmlns:svg="http://www.w3.org/2000/svg"><sodipodi:namedview
   id="namedview23"
   pagecolor="#ffffff"
   bordercolor="#000000"
   borderopacity="0.25"
   inkscape:showpageshadow="2"
   inkscape:pageopacity="0.0"
   inkscape:pagecheckerboard="0"
   inkscape:deskcolor="#d1d1d1"
   showgrid="false"
   inkscape:zoom="0.59593081"
   inkscape:cx="-62.926768"
   inkscape:cy="139.27791"
   inkscape:window-width="1920"
   inkscape:window-height="1017"
   inkscape:window-x="-8"
   inkscape:window-y="-8"
   inkscape:window-maximized="1"
   inkscape:current-layer="Layer_x0020_1" />
 <defs
   id="defs4">
  <style
   type="text/css"
   id="style2">
   <![CDATA[
    .fil0 {fill:#2B3B3C}
   ]]>
  </style>
 </defs>
 <g
   id="Layer_x0020_1"
   inkscape:label="Layer 1">
  <metadata
   id="CorelCorpID_0Corel-Layer" />
  <g
   id="_2692056740560"
   style="fill:#000000;fill-opacity:1"
   transform="matrix(0.95312613,0,0,0.95312613,11.999711,11.999711)">
   
   
   
   
   
   <g
   id="g360"
   style="fill:#000000;fill-opacity:1"><path
     id="polygon7"
     class="fil0"
     style="fill:#000000;fill-opacity:1"
     d="m 259,138 102,59 V 315 L 259,374 157,315 V 197 Z"
     sodipodi:nodetypes="ccccccc" /><path
     id="polygon9"
     class="fil0"
     style="fill:#000000;fill-opacity:1"
     d="M 478,123 397,169 265,93 V 0 l 45,26 v 27 l 99,58 24,-14 z"
     sodipodi:nodetypes="ccccccccc" /><path
     id="polygon11"
     class="fil0"
     style="fill:#000000;fill-opacity:1"
     d="M 253,0 V 93 L 121,169 41,123 85,97 109,111 208,53 V 26 Z"
     sodipodi:nodetypes="ccccccccc" /><path
     id="polygon13"
     class="fil0"
     style="fill:#000000;fill-opacity:1"
     d="m 34,133 81,47 V 332 L 34,379 V 327 L 58,313 V 199 L 34,185 Z"
     sodipodi:nodetypes="ccccccccc" /><path
     id="polygon15"
     class="fil0"
     style="fill:#000000;fill-opacity:1"
     d="m 41,389 80,-46 132,76 v 93 l -45,-26 v -27 l -99,-58 -24,14 z"
     sodipodi:nodetypes="ccccccccc" /><path
     id="polygon17"
     class="fil0"
     style="fill:#000000;fill-opacity:1"
     d="m 265,512 v -93 l 132,-76 81,46 -45,26 -24,-14 -99,58 v 27 z"
     sodipodi:nodetypes="ccccccccc" /></g>
  </g>
 </g>
</svg>
