<?xml version="1.0" encoding="UTF-8"?>
<svg id="svg5" xmlns="http://www.w3.org/2000/svg" viewBox="0 0 512 512">
  <defs>
    <style>
      .cls-1 {
        fill: #fdd01b;
      }

      .cls-1, .cls-2, .cls-3 {
        stroke-width: 0px;
      }

      .cls-2 {
        fill: rgba(255, 255, 255, .5);
      }

      .cls-3 {
        fill: #fff;
      }
    </style>
  </defs>
  <g id="layer1">
    <g id="g3731">
      <path id="path2596-7" class="cls-3" d="M460.275,155.681l-9.6,16.631h-31.282l-29.951-51.876c-4.76-11.983,3.244-23.721,11.138-24.083l27.676,59.329h32.018Z"/>
      <path id="rect2518-1" class="cls-3" d="M482.86,156.581h0c9.466,0,17.14,7.674,17.14,17.14v232.794c0,9.466-7.674,17.14-17.14,17.14h0c-9.466,0-17.14-7.674-17.14-17.14v-232.794c0-9.466,7.674-17.14,17.14-17.14Z"/>
      <rect id="rect354" class="cls-3" x="136.661" y="187.53" width="316.197" height="81.039"/>
      <path id="rect408" class="cls-2" d="M136.661,281.593h318.367v127.347l-32.29.007-1.403-49.215-1.403,65.675h-28.592l-1.403-65.675-1.403,49.215h-184.538l-1.403-49.215-1.403,65.675h-31.66l-1.403-65.675-1.403,49.215h-30.06v-127.354Z"/>
      <path id="rect2518" class="cls-3" d="M106.041,156.586h0c9.466,0,17.14,7.674,17.14,17.14v232.794c0,9.466-7.674,17.14-17.14,17.14h0c-9.466,0-17.14-7.674-17.14-17.14v-232.794c0-9.466,7.674-17.14,17.14-17.14Z"/>
      <path id="path2596" class="cls-3" d="M133.767,155.689l9.6,16.631h31.281l29.951-51.876c4.76-11.983-3.244-23.721-11.138-24.083l-27.676,59.329h-32.018Z"/>
      <rect id="rect2620" class="cls-2" x="219.871" y="86.593" width="158.822" height="35.093"/>
      <path id="path2622" class="cls-1" d="M75.166,180.285l-.007,219.249c-45.265,1.204-54.67-4.687-53.905-53.905v-112.152c-.9-41.812,20.335-53.882,53.913-53.191h0Z"/>
      <path id="rect2684" class="cls-3" d="M12,270.014h63.166v39.962H12v-39.962Z"/>
    </g>
  </g>
</svg>