<?xml version="1.0" encoding="UTF-8"?>
<svg id="Layer_2" data-name="Layer 2" xmlns="http://www.w3.org/2000/svg" viewBox="0 0 512 512">
  <defs>
    <style>
      .cls-1 {
        stroke-width: 0px;
      }
    </style>
  </defs>
  <path class="cls-1" d="M256,497.079c-13.482,0-26.158-5.25-35.691-14.784L30.205,292.191c-9.533-9.533-14.784-22.209-14.784-35.691s5.25-26.158,14.784-35.691L220.309,30.705c9.533-9.533,22.209-14.784,35.691-14.784s26.158,5.25,35.691,14.784l190.104,190.104c9.533,9.533,14.784,22.209,14.784,35.691s-5.251,26.158-14.784,35.691l-190.104,190.104c-9.533,9.533-22.209,14.784-35.691,14.784ZM256,34.802c-8.44,0-16.374,3.286-22.341,9.253L43.555,234.159c-5.967,5.967-9.253,13.901-9.253,22.341s3.286,16.373,9.253,22.34l190.104,190.104c5.968,5.968,13.902,9.255,22.341,9.255s16.373-3.286,22.34-9.253l190.106-190.106c5.967-5.967,9.253-13.901,9.253-22.34s-3.286-16.373-9.255-22.34L278.34,44.055c-5.967-5.967-13.901-9.253-22.34-9.253Z"/>
  <polygon class="cls-1" points="256.003 179.968 197.758 238.213 128.001 238.213 256.006 110.214 384.005 238.213 314.248 238.213 256.003 179.968"/>
  <polygon class="cls-1" points="256 283.973 217.79 322.184 172.027 322.184 256.002 238.213 339.973 322.184 294.21 322.184 256 283.973"/>
  <polygon class="cls-1" points="256 348.041 229.152 374.888 196.998 374.888 256.001 315.888 315.002 374.888 282.848 374.888 256 348.041"/>
</svg>