<?xml version="1.0" encoding="UTF-8" standalone="no"?>
<!-- Created with Inkscape (http://www.inkscape.org/) -->

<svg
   width="440"
   height="440"
   viewBox="0 0 116.41666 116.41667"
   version="1.1"
   id="svg1"
   inkscape:version="1.3.2 (091e20e, 2023-11-25, custom)"
   sodipodi:docname="Field Research.svg"
   xmlns:inkscape="http://www.inkscape.org/namespaces/inkscape"
   xmlns:sodipodi="http://sodipodi.sourceforge.net/DTD/sodipodi-0.dtd"
   xmlns="http://www.w3.org/2000/svg"
   xmlns:svg="http://www.w3.org/2000/svg"
   xmlns:rdf="http://www.w3.org/1999/02/22-rdf-syntax-ns#"
   xmlns:cc="http://creativecommons.org/ns#"
   xmlns:dc="http://purl.org/dc/elements/1.1/">
  <title
     id="title1">Field Research</title>
  <sodipodi:namedview
     id="namedview1"
     pagecolor="#ffffff"
     bordercolor="#000000"
     borderopacity="0.57647059"
     inkscape:showpageshadow="2"
     inkscape:pageopacity="0.0"
     inkscape:pagecheckerboard="true"
     inkscape:deskcolor="#000000"
     inkscape:document-units="mm"
     inkscape:zoom="2.0000001"
     inkscape:cx="191.25"
     inkscape:cy="248.74999"
     inkscape:window-width="3840"
     inkscape:window-height="2107"
     inkscape:window-x="-8"
     inkscape:window-y="-8"
     inkscape:window-maximized="1"
     inkscape:current-layer="layer22" />
  <defs
     id="defs1">
    <filter
       style="color-interpolation-filters:sRGB;"
       inkscape:label="Invert"
       id="filter1"
       x="0"
       y="0"
       width="1"
       height="1">
      <feColorMatrix
         values="0 0 -1 0 1 0 -1 0 0 1 -1 0 0 0 1 0.21 0.72 0.07 0.671733 0 "
         result="color2"
         id="feColorMatrix1" />
    </filter>
  </defs>
  <metadata
     id="metadata1">
    <rdf:RDF>
      <cc:Work
         rdf:about="">
        <dc:title>Field Research</dc:title>
      </cc:Work>
    </rdf:RDF>
  </metadata>
  <g
     inkscape:groupmode="layer"
     id="layer22"
     inkscape:label="Pathfinder"
     transform="matrix(0.26458333,0,0,0.26458333,581.24476,-250.77786)">
    <g
       id="g106"
       inkscape:label="Field Research"
       transform="translate(-15.413437,461.88532)">
      <path
         id="path84-9"
         style="display:inline;fill:#000000;fill-opacity:1;stroke:none;stroke-width:1px;stroke-linecap:butt;stroke-linejoin:miter;stroke-opacity:1"
         d="m -1900.5898,490.53516 -13.5684,10.53711 c -7.6558,-0.32022 -8.474,6.25047 -7.0508,9.62695 l 1.5156,2.19922 22.4395,11.06836 c 3.048,1.93201 12.3842,-2.4887 7.2773,-10.53711 l -0.5,-17.05469 z m -125.6856,12.05468 8.1875,37.59766 37.2207,18.3457 -12.7363,-24.25781 63.3027,-20.69922 c -1.5552,-2.74306 -1.4796,-5.68914 -0.7578,-8.71679 l -66.0312,22.13867 -7.5059,-15.38867 z m 109.6914,23.42383 -16.2324,30.60156 -13.1055,-6.64843 -2.4258,-0.15039 -25.8496,12.50781 70.045,34.1875 -5.459,-28.12305 -14.9024,-7.56055 15.586,-30.49414 z m 33.0469,2.56836 c -1.8755,1.90754 -3.1675,3.89136 -7.4688,4.55859 l 21.045,62.5 -26.4414,4.02149 36.8418,19.09375 35.1308,-15.70313 -20.1191,-12.10742 -16.8418,3.08203 z m -134.2481,23.28125 26.0254,31.00977 29.75,14.41797 -4.2343,8.0957 c -20.9739,10.10086 -17.4151,30.38493 -5.1563,37.44726 14.0029,8.06714 37.7685,0.18366 30.0274,-26.9414 l 3.2168,-5.62891 2.2519,-0.375 24.7012,12.77539 41.8457,2.57813 z m 57.8887,62.74219 a 11.0421,11.0421 0 0 1 1.5703,0.11523 11.0421,11.0421 0 0 1 9.334,12.51953 11.0421,11.0421 0 0 1 -12.5195,9.33399 11.0421,11.0421 0 0 1 -9.334,-12.51953 11.0421,11.0421 0 0 1 10.9492,-9.44922 z m -16.0488,34.94922 2.7871,16.24023 h 23.1562 l -5.0937,-11.8457 c -7.2833,1.53083 -14.1714,-0.47891 -20.8496,-4.39453 z m 4.4473,23.37109 -10.7188,8.36133 v 110.52734 l 10.9336,8.14844 h 23.1562 l 11.1504,-8.46875 V 681.39453 l -10.9355,-8.46875 z m 2.3593,17.04492 h 19.9395 v 68.12891 h -19.9395 z m -9.4433,116.7461 0.01,2.78711 10.1836,14.52539 h 15.3848 l 9.6484,-14.31055 v -3.00195 z m -14.1426,8.30859 -23.209,14.6875 v 18.38477 l 10.0234,6.05664 5.5215,-3.69727 1.0176,-3.75391 10.5059,-5.89453 7.1308,0.32032 5.7891,-5.14453 0.1055,-7.23633 -10.1309,-13.72266 z m 55.9629,0 -10.1309,13.72266 0.1055,7.23633 5.7891,5.14453 7.1308,-0.32032 10.5059,5.89453 1.0175,3.75391 5.5215,3.69727 10.0235,-6.05664 v -18.38477 l -23.209,-14.6875 z m -48.1797,11.36328 a 5.1994352,5.1994352 0 0 1 0.7402,0.0547 5.1994352,5.1994352 0 0 1 4.3946,5.89453 5.1994352,5.1994352 0 0 1 -5.8946,4.39453 5.1994352,5.1994352 0 0 1 -4.3945,-5.89453 5.1994352,5.1994352 0 0 1 5.1543,-4.44922 z m 47.1504,0 a 5.1994352,5.1994352 0 0 1 5.1543,4.44922 5.1994352,5.1994352 0 0 1 -4.3945,5.89453 5.1994352,5.1994352 0 0 1 -5.8946,-4.39453 5.1994352,5.1994352 0 0 1 4.3946,-5.89453 5.1994352,5.1994352 0 0 1 0.7402,-0.0547 z m -84.0391,26.42578 -43.8457,48.34961 h 25.4063 l 33.8242,-38.54101 -14.2051,-9.70117 z m 120.9278,0 -1.1797,0.10743 -14.2032,9.70117 33.8223,38.54101 h 25.4082 z m -174.4942,56.31836 v 12.20508 h 40.3281 v -12.20508 z m 187.7324,0 v 12.20508 h 40.3301 v -12.20508 z" />
      <path
         id="path1"
         style="display:inline;fill:#000000;fill-opacity:0.496341;stroke-width:0.267511;stroke-linecap:round;stroke-linejoin:round;stroke-miterlimit:4.9;stroke-opacity:0.506098;paint-order:stroke markers fill"
         d="m -1960.9941,492.28516 c -12.7192,0.11173 -25.4034,1.36406 -37.9024,3.74218 l 2.9434,0.95118 7.2773,9.70312 v 0.45508 l 41.7266,-13.81055 c -4.6691,-0.50192 -9.3532,-0.84911 -14.0449,-1.04101 z m -80.7793,16.24023 c -70.5052,28.6955 -120.659,92.88222 -131.8125,168.69336 -12.1203,83.8825 25.5312,167.16187 96.289,212.97656 l 0.6309,-1.68164 4.8242,-4.60937 0.098,-0.11328 c -66.2766,-43.40689 -101.4397,-121.71471 -90.0547,-200.55079 10.4247,-71.01452 57.0957,-131.28796 122.9082,-158.73046 z m 168.6972,3.01563 0.9883,6.8164 5.7617,12.43164 0.6582,2.08399 c 75.0864,40.61533 116.9117,124.26593 104.6309,209.26172 v 0.002 c -8.4176,57.8123 -41.0136,109.21607 -89.5332,141.19336 l 5.7246,6.34961 c 51.8186,-33.82763 86.656,-88.52756 95.5957,-150.09961 v -0.002 c 13.7644,-95.33449 -36.7384,-188.33984 -123.8262,-228.0371 z m -150.2246,59.48046 c -56.6915,22.29333 -97.2054,73.46994 -106.1875,134.13477 -9.2093,63.6778 17.8097,127.17847 69.9278,164.3457 l 3.8007,-3.28711 0.1387,-0.1582 c -46.2386,-35.94476 -69.8864,-95.21239 -61.668,-154.55664 8.5141,-59.60496 47.8454,-109.56152 102.4317,-130.10352 z m 28.459,44.29102 c -49.6824,13.69316 -86.6692,55.64517 -94.3223,106.98438 -6.775,47.61365 12.8615,95.14372 51.1621,123.83789 l 1.1094,-1.25391 4.7051,-4.37695 c -34.682,-26.332 -52.4791,-69.67404 -46.457,-113.13868 6.7259,-45.5843 38.5462,-83.29054 81.9687,-97.13085 z m 165.9902,7.91602 -12.248,5.13476 c 29.7719,35.96026 43.0878,83.53297 36.5137,130.44922 v 0.002 c -6.0284,42.7506 -28.0729,81.30433 -61.3418,107.28125 l 0.9922,1.29883 1.5488,1.7168 c 37.817,-26.98766 63.0444,-68.38504 69.8281,-114.58594 v -0.002 c 6.7443,-46.80056 -6.0313,-94.32742 -35.293,-131.29492 z m -73.6582,16.58203 c 42.8659,24.42828 66.4713,73.03924 59.4004,122.32422 -4.5283,31.09325 -20.8768,59.1646 -45.5586,78.22656 l 0.5762,0.98242 4.2754,5.19336 c 28.1223,-20.62665 46.8779,-51.74603 52.0781,-86.4082 v -0.002 c 6.5073,-45.12611 -10.7153,-90.41888 -45.4785,-119.60156 z"
         sodipodi:nodetypes="ccccccccccccccccccccssccsscccccccccccccccccccsscccssccccccsscc" />
    </g>
  </g>
</svg>
