<svg id="Layer_1" data-name="Layer 1" xmlns="http://www.w3.org/2000/svg" viewBox="0 0 444 512"><defs><style>.cls-1{fill:#1bc2bd;}</style></defs><title>Materials blue</title><g id="Layer_1-2" data-name="Layer_1"><g id="_2692056740560" data-name=" 2692056740560"><polygon class="cls-1" points="225 138 276 168 327 197 327 256 327 315 276 344 225 374 174 344 123 315 123 256 123 197 174 168 225 138"/><polygon class="cls-1" points="444 123 429 131 363 169 297 131 231 93 231 17 231 0 276 26 276 53 375 111 399 97 444 123"/><polygon class="cls-1" points="219 0 219 17 219 93 153 131 87 169 22 131 7 123 51 97 75 111 174 53 174 26 219 0"/><polygon class="cls-1" points="0 133 15 142 81 180 81 256 81 332 15 370 0 379 0 327 24 313 24 199 0 185 0 133"/><polygon class="cls-1" points="7 389 22 381 87 343 153 381 219 419 219 495 219 512 174 486 174 459 75 401 51 415 7 389"/><polygon class="cls-1" points="231 512 231 495 231 419 297 381 363 343 429 381 444 389 399 415 375 401 276 459 276 486 231 512"/></g></g></svg>