<?xml version="1.0" encoding="UTF-8" standalone="no"?>
<!-- Generator: Adobe Illustrator 22.1.0, SVG Export Plug-In . SVG Version: 6.00 Build 0)  -->

<svg
   version="1.1"
   id="Layer_4_1_"
   x="0px"
   y="0px"
   viewBox="0 0 512 512"
   xml:space="preserve"
   sodipodi:docname="Vault_Key.svg"
   width="512"
   height="512"
   inkscape:version="1.2.2 (732a01da63, 2022-12-09)"
   xmlns:inkscape="http://www.inkscape.org/namespaces/inkscape"
   xmlns:sodipodi="http://sodipodi.sourceforge.net/DTD/sodipodi-0.dtd"
   xmlns="http://www.w3.org/2000/svg"
   xmlns:svg="http://www.w3.org/2000/svg"><defs
   id="defs15" /><sodipodi:namedview
   id="namedview13"
   pagecolor="#ffffff"
   bordercolor="#666666"
   borderopacity="1.0"
   inkscape:pageshadow="2"
   inkscape:pageopacity="0.0"
   inkscape:pagecheckerboard="0"
   showgrid="false"
   inkscape:zoom="0.61155181"
   inkscape:cx="102.19903"
   inkscape:cy="352.38225"
   inkscape:window-width="2560"
   inkscape:window-height="1361"
   inkscape:window-x="-9"
   inkscape:window-y="-9"
   inkscape:window-maximized="1"
   inkscape:current-layer="Layer_4_1_"
   inkscape:showpageshadow="2"
   inkscape:deskcolor="#d1d1d1" />
<style
   type="text/css"
   id="style2">
	.st0{opacity:0.6;fill:#241C1C;}
	.st1{fill:#241C1C;}
</style>



<g
   id="g1197"
   transform="matrix(13.55557,0,0,13.55557,3.866658,5.221948)"
   style="fill:#000000"><path
     class="st0"
     d="M 31.4,5.3 H 18.5 5.6 L 2.1,8.7 v 9.8 9.8 l 3.4,3.4 H 18.4 31.5 L 34.9,28.3 34.8,8.7 Z m 1.7,13.2 v 8.3 L 29.9,30 H 18.5 7.1 L 3.9,26.8 V 18.5 10.2 L 7.1,7 h 11.4 11.4 l 3.2,3.2 z"
     id="path4"
     style="fill:#000000;fill-opacity:1"
     sodipodi:nodetypes="ccccccccccccccccccccccccc" /><path
     class="st1"
     d="M 18.5,7 H 7.1 l -3.2,3.2 v 8.3 8.3 L 7.1,30 h 11.4 11.4 l 3.2,-3.2 V 18.5 10.2 L 29.9,7 Z m 13.6,4.4 -1.1,1.1 v 6 6 l 1.1,1.1 v 0.7 L 29.4,29 H 18.5 7.6 L 4.9,26.3 V 25.6 L 6,24.5 v -6 -6 L 4.9,11.4 V 10.7 L 7.6,8 h 10.9 10.9 l 2.7,2.7 z"
     id="path6"
     style="fill:#000000;fill-opacity:1" /><path
     class="st1"
     d="M 35.9,7.2 33.3,4.6 C 32.7,4 31.8,3.6 30.9,3.6 H 18.5 6.1 c -0.9,0 -1.7,0.3 -2.4,1 L 1.1,7.2 C 0.8,7.5 0.6,8 0.6,8.5 v 10 10 c 0,0.5 0.2,1 0.6,1.3 l 2.6,2.6 c 0.6,0.6 1.5,1 2.4,1 H 18.6 31 c 0.9,0 1.7,-0.3 2.4,-1 L 36,29.8 c 0.4,-0.3 0.6,-0.8 0.6,-1.3 v -10 -10 C 36.4,8 36.2,7.5 35.9,7.2 Z m -1,21.1 -3.4,3.4 H 18.5 5.6 L 2.2,28.3 V 18.5 8.7 L 5.6,5.3 h 12.9 12.9 l 3.4,3.4 z"
     id="path8"
     style="fill:#000000;fill-opacity:1"
     sodipodi:nodetypes="ssscsssscscsscsscsccscccccccccccc" /><path
     class="st1"
     d="M 23.8,16.2 H 22.4 V 11.7 C 22.4,9.6 21,9 20.3,9 h -3.7 c -0.7,0 -2.1,0.6 -2.1,2.7 v 1.4 h 1.3 v -1.4 c 0,-1.2 0.6,-1.4 0.8,-1.4 h 3.6 c 0,0 0.8,0 0.8,1.4 v 4.5 h -2.6 -5.3 l -1.4,1.4 V 26 l 1.4,1.4 h 5.3 5.3 L 25.1,26 v -8.4 z m -3.9,8.6 h -1.4 -1.4 c 0,0 0.5,-1.4 0.7,-2.5 -0.6,-0.3 -1,-0.9 -1,-1.5 0,-0.9 0.8,-1.7 1.7,-1.7 0.9,0 1.7,0.8 1.7,1.7 0,0.7 -0.4,1.3 -1,1.5 0.2,1.1 0.7,2.5 0.7,2.5 z"
     id="path10"
     style="fill:#000000;fill-opacity:1" /></g>
</svg>
